<svg width="14" height="8" viewBox="0 0 14 8" fill="none" xmlns="http://www.w3.org/2000/svg">
<path d="M6.43295 7.31754L0.182953 1.06753C0.124884 1.00947 0.0788211 0.940528 0.0473947 0.864657C0.0159683 0.788787 -0.000207932 0.707469 -0.000207928 0.625347C-0.000207925 0.543225 0.0159683 0.461907 0.0473947 0.386037C0.0788212 0.310166 0.124884 0.241228 0.182953 0.183159C0.241021 0.12509 0.309959 0.0790275 0.38583 0.0476009C0.4617 0.0161742 0.543018 -5.77317e-07 0.62514 -5.73727e-07C0.707262 -5.70138e-07 0.78858 0.0161742 0.86445 0.0476009C0.940321 0.0790276 1.00926 0.12509 1.06733 0.183159L6.87514 5.99175L12.683 0.18316C12.8002 0.0658843 12.9593 -3.58201e-08 13.1251 -2.73348e-08C13.291 -1.88495e-08 13.4501 0.0658843 13.5673 0.18316C13.6846 0.300435 13.7505 0.459495 13.7505 0.625347C13.7505 0.7912 13.6846 0.95026 13.5673 1.06754L7.31733 7.31754C7.25928 7.37565 7.19035 7.42175 7.11448 7.4532C7.0386 7.48465 6.95728 7.50084 6.87514 7.50084C6.79301 7.50084 6.71168 7.48465 6.6358 7.4532C6.55993 7.42174 6.491 7.37565 6.43295 7.31754Z" fill="#616A75"/>
</svg>
